<mxfile host="app.diagrams.net" modified="2024-03-04T12:53:34.241Z" agent="Mozilla/5.0 (Windows NT 10.0; Win64; x64) AppleWebKit/537.36 (KHTML, like Gecko) Chrome/122.0.0.0 Safari/537.36" etag="n1KdKtDp3qbSxJUx1NYb" version="24.0.0" type="device">
  <diagram name="Arquitetura-grupo-05" id="90eqOL8bx-6VZ0cI3ec-">
    <mxGraphModel dx="2415" dy="908" grid="1" gridSize="10" guides="1" tooltips="1" connect="1" arrows="1" fold="1" page="1" pageScale="1" pageWidth="827" pageHeight="1169" math="0" shadow="0">
      <root>
        <mxCell id="0" />
        <mxCell id="1" parent="0" />
        <mxCell id="CjrealuKwnq1mrGlpfEA-1" value="" style="shape=image;verticalLabelPosition=bottom;labelBackgroundColor=default;verticalAlign=top;aspect=fixed;imageAspect=0;image=https://eduardo2s.github.io/assets/img/spark.png;" parent="1" vertex="1">
          <mxGeometry x="668" y="550" width="160" height="90" as="geometry" />
        </mxCell>
        <mxCell id="DmdU8ZEOlt_OejEhqSOY-6" value="" style="rounded=0;whiteSpace=wrap;html=1;fillColor=#dae8fc;strokeColor=#6c8ebf;" vertex="1" parent="1">
          <mxGeometry x="310" y="190" width="550" height="370" as="geometry" />
        </mxCell>
        <mxCell id="CjrealuKwnq1mrGlpfEA-20" value="" style="rounded=0;whiteSpace=wrap;html=1;fillColor=#edebfa;" parent="1" vertex="1">
          <mxGeometry x="530" y="850" width="330" height="215" as="geometry" />
        </mxCell>
        <mxCell id="uuC0uU9qO-WGWbCFHayV-21" value="" style="rounded=0;whiteSpace=wrap;html=1;fillColor=#c7b4cf;" parent="1" vertex="1">
          <mxGeometry x="20" y="190" width="620" height="370" as="geometry" />
        </mxCell>
        <mxCell id="uuC0uU9qO-WGWbCFHayV-23" value="" style="rounded=0;whiteSpace=wrap;html=1;fillColor=#edebfa;" parent="1" vertex="1">
          <mxGeometry x="20" y="610" width="840" height="215" as="geometry" />
        </mxCell>
        <mxCell id="uuC0uU9qO-WGWbCFHayV-22" value="" style="rounded=0;whiteSpace=wrap;html=1;fillColor=#ffffff;" parent="1" vertex="1">
          <mxGeometry x="145" y="56" width="170" height="97" as="geometry" />
        </mxCell>
        <mxCell id="uuC0uU9qO-WGWbCFHayV-2" value="Blob storage grupo 5" style="image;sketch=0;aspect=fixed;html=1;points=[];align=center;fontSize=12;image=img/lib/mscae/BlobBlock.svg;" parent="1" vertex="1">
          <mxGeometry x="155" y="640" width="50" height="42" as="geometry" />
        </mxCell>
        <mxCell id="CjrealuKwnq1mrGlpfEA-10" style="edgeStyle=orthogonalEdgeStyle;rounded=0;orthogonalLoop=1;jettySize=auto;html=1;" parent="1" source="uuC0uU9qO-WGWbCFHayV-3" edge="1">
          <mxGeometry relative="1" as="geometry">
            <mxPoint x="230" y="280" as="targetPoint" />
          </mxGeometry>
        </mxCell>
        <mxCell id="uuC0uU9qO-WGWbCFHayV-3" value="Dados Clientes" style="image;sketch=0;aspect=fixed;html=1;points=[];align=center;fontSize=12;image=img/lib/mscae/BlobBlock.svg;" parent="1" vertex="1">
          <mxGeometry x="205" y="83.5" width="50" height="42" as="geometry" />
        </mxCell>
        <mxCell id="CjrealuKwnq1mrGlpfEA-15" style="edgeStyle=orthogonalEdgeStyle;rounded=0;orthogonalLoop=1;jettySize=auto;html=1;" parent="1" source="uuC0uU9qO-WGWbCFHayV-5" target="CjrealuKwnq1mrGlpfEA-3" edge="1">
          <mxGeometry relative="1" as="geometry" />
        </mxCell>
        <mxCell id="uuC0uU9qO-WGWbCFHayV-5" value="Bronze" style="sketch=0;outlineConnect=0;fillColor=#786530;strokeColor=#A18841;dashed=0;verticalLabelPosition=bottom;verticalAlign=top;align=center;html=1;fontSize=12;fontStyle=0;aspect=fixed;pointerEvents=1;shape=mxgraph.aws4.iot_analytics_data_store;" parent="1" vertex="1">
          <mxGeometry x="160" y="710" width="54" height="78" as="geometry" />
        </mxCell>
        <mxCell id="DmdU8ZEOlt_OejEhqSOY-5" style="edgeStyle=orthogonalEdgeStyle;rounded=0;orthogonalLoop=1;jettySize=auto;html=1;" edge="1" parent="1" source="uuC0uU9qO-WGWbCFHayV-16" target="uuC0uU9qO-WGWbCFHayV-2">
          <mxGeometry relative="1" as="geometry" />
        </mxCell>
        <mxCell id="uuC0uU9qO-WGWbCFHayV-16" value="atividade copy" style="image;sketch=0;aspect=fixed;html=1;points=[];align=center;fontSize=12;image=img/lib/mscae/Azure_Pipelines.svg;" parent="1" vertex="1">
          <mxGeometry x="205" y="430" width="50" height="50" as="geometry" />
        </mxCell>
        <mxCell id="xcUW8jf7g7LdZtzedoRj-5" style="edgeStyle=orthogonalEdgeStyle;rounded=0;orthogonalLoop=1;jettySize=auto;html=1;" parent="1" source="xcUW8jf7g7LdZtzedoRj-1" target="xcUW8jf7g7LdZtzedoRj-4" edge="1">
          <mxGeometry relative="1" as="geometry" />
        </mxCell>
        <mxCell id="xcUW8jf7g7LdZtzedoRj-1" value="linked service to databricks" style="shape=image;verticalLabelPosition=bottom;labelBackgroundColor=default;verticalAlign=top;aspect=fixed;imageAspect=0;image=https://1.bp.blogspot.com/-i1F-HI1KbFk/YZAawL2YzQI/AAAAAAAALtw/frUspfHvkMsQEQlhggRjzea029vZ-6y7gCLcBGAsYHQ/s1006/ADFLinkedService.png;" parent="1" vertex="1">
          <mxGeometry x="510" y="450" width="84.99" height="80" as="geometry" />
        </mxCell>
        <mxCell id="xcUW8jf7g7LdZtzedoRj-4" value="databricks" style="image;aspect=fixed;html=1;points=[];align=center;fontSize=12;image=img/lib/azure2/analytics/Azure_Databricks.svg;" parent="1" vertex="1">
          <mxGeometry x="697.92" y="326" width="62.8" height="68" as="geometry" />
        </mxCell>
        <mxCell id="CjrealuKwnq1mrGlpfEA-2" value="ingest" style="text;html=1;align=center;verticalAlign=middle;whiteSpace=wrap;rounded=0;" parent="1" vertex="1">
          <mxGeometry x="50" y="200" width="60" height="30" as="geometry" />
        </mxCell>
        <mxCell id="CjrealuKwnq1mrGlpfEA-17" style="edgeStyle=orthogonalEdgeStyle;rounded=0;orthogonalLoop=1;jettySize=auto;html=1;" parent="1" source="CjrealuKwnq1mrGlpfEA-3" target="CjrealuKwnq1mrGlpfEA-4" edge="1">
          <mxGeometry relative="1" as="geometry" />
        </mxCell>
        <mxCell id="CjrealuKwnq1mrGlpfEA-3" value="Silver" style="sketch=0;outlineConnect=0;fillColor=#cccccc;strokeColor=#A18841;dashed=0;verticalLabelPosition=bottom;verticalAlign=top;align=center;html=1;fontSize=12;fontStyle=0;aspect=fixed;pointerEvents=1;shape=mxgraph.aws4.iot_analytics_data_store;" parent="1" vertex="1">
          <mxGeometry x="386.5" y="710" width="54" height="78" as="geometry" />
        </mxCell>
        <mxCell id="CjrealuKwnq1mrGlpfEA-24" style="edgeStyle=orthogonalEdgeStyle;rounded=0;orthogonalLoop=1;jettySize=auto;html=1;" parent="1" source="CjrealuKwnq1mrGlpfEA-4" target="CjrealuKwnq1mrGlpfEA-22" edge="1">
          <mxGeometry relative="1" as="geometry" />
        </mxCell>
        <mxCell id="CjrealuKwnq1mrGlpfEA-4" value="Gold" style="sketch=0;outlineConnect=0;fillColor=#daa520;strokeColor=#A18841;dashed=0;verticalLabelPosition=bottom;verticalAlign=top;align=center;html=1;fontSize=12;fontStyle=0;aspect=fixed;pointerEvents=1;shape=mxgraph.aws4.iot_analytics_data_store;" parent="1" vertex="1">
          <mxGeometry x="620" y="710" width="54" height="78" as="geometry" />
        </mxCell>
        <mxCell id="CjrealuKwnq1mrGlpfEA-16" value="" style="shape=flexArrow;endArrow=classic;startArrow=classic;html=1;rounded=0;entryX=0.098;entryY=0.997;entryDx=0;entryDy=0;entryPerimeter=0;" parent="1" edge="1">
          <mxGeometry width="100" height="100" relative="1" as="geometry">
            <mxPoint x="677.17" y="635" as="sourcePoint" />
            <mxPoint x="677.17" y="534" as="targetPoint" />
          </mxGeometry>
        </mxCell>
        <mxCell id="CjrealuKwnq1mrGlpfEA-18" value="process" style="text;html=1;align=center;verticalAlign=middle;whiteSpace=wrap;rounded=0;" parent="1" vertex="1">
          <mxGeometry x="649.72" y="200" width="60" height="30" as="geometry" />
        </mxCell>
        <mxCell id="CjrealuKwnq1mrGlpfEA-19" value="containers" style="text;html=1;align=center;verticalAlign=middle;whiteSpace=wrap;rounded=0;" parent="1" vertex="1">
          <mxGeometry x="400" y="640" width="60" height="30" as="geometry" />
        </mxCell>
        <mxCell id="CjrealuKwnq1mrGlpfEA-21" value="" style="image;aspect=fixed;html=1;points=[];align=center;fontSize=12;image=img/lib/azure2/security/Key_Vaults.svg;" parent="1" vertex="1">
          <mxGeometry x="510" y="362" width="68" height="68" as="geometry" />
        </mxCell>
        <mxCell id="CjrealuKwnq1mrGlpfEA-22" value="Power BI" style="image;aspect=fixed;html=1;points=[];align=center;fontSize=12;image=img/lib/azure2/analytics/Power_BI_Embedded.svg;" parent="1" vertex="1">
          <mxGeometry x="623" y="923.5" width="51" height="68" as="geometry" />
        </mxCell>
        <mxCell id="CjrealuKwnq1mrGlpfEA-23" value="visualization" style="text;html=1;align=center;verticalAlign=middle;whiteSpace=wrap;rounded=0;" parent="1" vertex="1">
          <mxGeometry x="550" y="860" width="60" height="30" as="geometry" />
        </mxCell>
        <mxCell id="DmdU8ZEOlt_OejEhqSOY-4" style="edgeStyle=orthogonalEdgeStyle;rounded=0;orthogonalLoop=1;jettySize=auto;html=1;" edge="1" parent="1" source="DmdU8ZEOlt_OejEhqSOY-1" target="uuC0uU9qO-WGWbCFHayV-16">
          <mxGeometry relative="1" as="geometry" />
        </mxCell>
        <mxCell id="DmdU8ZEOlt_OejEhqSOY-1" value="Azure function" style="image;aspect=fixed;html=1;points=[];align=center;fontSize=12;image=img/lib/azure2/compute/Function_Apps.svg;" vertex="1" parent="1">
          <mxGeometry x="196" y="290" width="68" height="60" as="geometry" />
        </mxCell>
        <mxCell id="DmdU8ZEOlt_OejEhqSOY-3" value="data factory" style="image;aspect=fixed;html=1;points=[];align=center;fontSize=12;image=img/lib/azure2/databases/Data_Factory.svg;" vertex="1" parent="1">
          <mxGeometry x="-10" y="250" width="100" height="100" as="geometry" />
        </mxCell>
        <mxCell id="DmdU8ZEOlt_OejEhqSOY-7" value="databricks" style="image;aspect=fixed;html=1;points=[];align=center;fontSize=12;image=img/lib/azure2/analytics/Azure_Databricks.svg;" vertex="1" parent="1">
          <mxGeometry x="740" y="621" width="62.8" height="68" as="geometry" />
        </mxCell>
        <mxCell id="DmdU8ZEOlt_OejEhqSOY-9" value="Text" style="text;html=1;align=center;verticalAlign=middle;whiteSpace=wrap;rounded=0;" vertex="1" parent="1">
          <mxGeometry x="220" y="560" width="60" height="30" as="geometry" />
        </mxCell>
        <mxCell id="DmdU8ZEOlt_OejEhqSOY-10" value="transform" style="text;html=1;align=center;verticalAlign=middle;whiteSpace=wrap;rounded=0;" vertex="1" parent="1">
          <mxGeometry x="30" y="621" width="60" height="30" as="geometry" />
        </mxCell>
      </root>
    </mxGraphModel>
  </diagram>
</mxfile>
